<svg width="35" height="34" viewBox="0 0 35 34" fill="none" xmlns="http://www.w3.org/2000/svg">
<path d="M4.02778 0H30.4722C31.4741 0 32.435 0.398015 33.1435 1.10649C33.852 1.81496 34.25 2.77585 34.25 3.77778V30.2222C34.25 32.3189 32.5689 34 30.4722 34H4.02778C3.02585 34 2.06496 33.602 1.35649 32.8935C0.648015 32.185 0.25 31.2241 0.25 30.2222V3.77778C0.25 1.7 1.95 0 4.02778 0ZM9.69444 26.4444H24.8056V22.6667H9.69444V26.4444ZM24.8056 13.2222H20.0833V7.55556H14.4167V13.2222H9.69444L17.25 20.7778L24.8056 13.2222Z" fill="#DC5252"/>
</svg>
